<?xml version="1.0" standalone="no"?>
<!DOCTYPE svg PUBLIC "-//W3C//DTD SVG 20010904//EN"
 "http://www.w3.org/TR/2001/REC-SVG-20010904/DTD/svg10.dtd">
<svg version="1.0" xmlns="http://www.w3.org/2000/svg"
 width="200.000000pt" height="200.000000pt" viewBox="0 0 200.000000 200.000000"
 preserveAspectRatio="xMidYMid meet">

<g transform="translate(0.000000,200.000000) scale(0.100000,-0.100000)"
fill="#000000" id="signature" stroke="none">
<path d="M627 1729 c-158 -64 -327 -231 -419 -414 -154 -305 -136 -688 42
-866 27 -27 76 -62 108 -77 52 -25 67 -27 177 -27 134 1 203 19 305 79 32 18
83 37 121 44 114 21 242 81 323 153 42 36 46 22 12 -38 -27 -46 -23 -65 5 -29
36 46 88 164 110 249 l21 86 30 -22 c43 -32 98 -110 114 -163 8 -26 12 -50 9
-54 -2 -4 -27 -10 -55 -13 -54 -7 -133 -38 -163 -65 -71 -64 -20 -142 93 -142
87 0 175 63 203 145 16 44 29 47 111 30 28 -5 37 -5 32 3 -4 6 -33 17 -65 23
-57 12 -59 13 -64 49 -11 84 -72 166 -173 232 l-64 42 -1 51 c-1 72 -11 99
-37 103 -34 5 -92 -57 -92 -97 0 -31 37 -81 60 -81 26 0 -4 -196 -36 -231 -32
-35 -136 -110 -195 -139 -50 -26 -169 -63 -176 -56 -2 1 20 26 48 55 102 106
184 258 226 421 20 77 25 121 26 230 2 205 -38 324 -138 419 -72 69 -112 84
-216 85 -82 1 -89 -1 -174 -43 -160 -79 -273 -220 -335 -416 -31 -96 -39 -292
-16 -388 45 -192 167 -332 340 -389 l81 -26 -50 -23 c-75 -33 -211 -38 -287
-10 -102 39 -172 127 -210 267 -17 65 -21 106 -21 229 1 165 14 234 73 382 73
184 203 341 333 401 99 47 86 73 -16 31z m289 -84 c66 -19 114 -61 152 -133
99 -186 91 -537 -18 -770 -34 -73 -103 -172 -149 -217 l-32 -29 -66 17 c-243
64 -397 336 -363 639 28 246 150 426 332 489 65 22 81 23 144 4z m665 -1083
c-26 -100 -121 -146 -187 -91 -15 12 -19 55 -8 84 14 36 172 86 199 63 6 -5 4
-26 -4 -56z"/>
</g>
</svg>
